<mxfile host="Electron" agent="Mozilla/5.0 (Windows NT 10.0; Win64; x64) AppleWebKit/537.36 (KHTML, like Gecko) draw.io/26.0.9 Chrome/128.0.6613.186 Electron/32.2.5 Safari/537.36" version="26.0.9">
  <diagram name="PÃ¡gina-1" id="5sP-3hQ8IsyCW7fVY7NP">
    <mxGraphModel dx="957" dy="478" grid="1" gridSize="10" guides="1" tooltips="1" connect="1" arrows="1" fold="1" page="1" pageScale="1" pageWidth="827" pageHeight="1169" math="0" shadow="0">
      <root>
        <mxCell id="0" />
        <mxCell id="1" parent="0" />
        <mxCell id="cGh4LljWvPgwLQH7slXu-8" style="edgeStyle=orthogonalEdgeStyle;rounded=0;orthogonalLoop=1;jettySize=auto;html=1;" edge="1" parent="1" source="cGh4LljWvPgwLQH7slXu-2" target="cGh4LljWvPgwLQH7slXu-7">
          <mxGeometry relative="1" as="geometry" />
        </mxCell>
        <mxCell id="cGh4LljWvPgwLQH7slXu-2" value="Data Raw" style="sketch=0;pointerEvents=1;shadow=0;dashed=0;html=1;strokeColor=none;fillColor=#DF8C42;labelPosition=center;verticalLabelPosition=bottom;verticalAlign=top;align=center;outlineConnect=0;shape=mxgraph.veeam2.aws_s3;" vertex="1" parent="1">
          <mxGeometry x="253" y="237" width="40" height="40" as="geometry" />
        </mxCell>
        <mxCell id="cGh4LljWvPgwLQH7slXu-3" value="spaceflightnewsapi" style="aspect=fixed;sketch=0;html=1;dashed=0;whitespace=wrap;verticalLabelPosition=bottom;verticalAlign=top;fillColor=#2875E2;strokeColor=#ffffff;points=[[0.005,0.63,0],[0.1,0.2,0],[0.9,0.2,0],[0.5,0,0],[0.995,0.63,0],[0.72,0.99,0],[0.5,1,0],[0.28,0.99,0]];shape=mxgraph.kubernetes.icon2;kubernetesLabel=1;prIcon=api" vertex="1" parent="1">
          <mxGeometry x="90" y="233" width="50" height="48" as="geometry" />
        </mxCell>
        <mxCell id="cGh4LljWvPgwLQH7slXu-6" style="edgeStyle=orthogonalEdgeStyle;rounded=0;orthogonalLoop=1;jettySize=auto;html=1;" edge="1" parent="1" source="cGh4LljWvPgwLQH7slXu-4" target="cGh4LljWvPgwLQH7slXu-2">
          <mxGeometry relative="1" as="geometry" />
        </mxCell>
        <mxCell id="cGh4LljWvPgwLQH7slXu-26" value="Errores" style="edgeStyle=orthogonalEdgeStyle;rounded=0;orthogonalLoop=1;jettySize=auto;html=1;" edge="1" parent="1" source="cGh4LljWvPgwLQH7slXu-4" target="cGh4LljWvPgwLQH7slXu-25">
          <mxGeometry relative="1" as="geometry" />
        </mxCell>
        <mxCell id="cGh4LljWvPgwLQH7slXu-4" value="" style="outlineConnect=0;dashed=0;verticalLabelPosition=bottom;verticalAlign=top;align=center;html=1;shape=mxgraph.aws3.lambda_function;fillColor=#F58534;gradientColor=none;" vertex="1" parent="1">
          <mxGeometry x="170" y="233" width="50" height="49" as="geometry" />
        </mxCell>
        <mxCell id="cGh4LljWvPgwLQH7slXu-5" style="edgeStyle=orthogonalEdgeStyle;rounded=0;orthogonalLoop=1;jettySize=auto;html=1;entryX=0;entryY=0.5;entryDx=0;entryDy=0;entryPerimeter=0;" edge="1" parent="1" source="cGh4LljWvPgwLQH7slXu-3" target="cGh4LljWvPgwLQH7slXu-4">
          <mxGeometry relative="1" as="geometry" />
        </mxCell>
        <mxCell id="cGh4LljWvPgwLQH7slXu-28" style="edgeStyle=orthogonalEdgeStyle;rounded=0;orthogonalLoop=1;jettySize=auto;html=1;" edge="1" parent="1" source="cGh4LljWvPgwLQH7slXu-7" target="cGh4LljWvPgwLQH7slXu-27">
          <mxGeometry relative="1" as="geometry" />
        </mxCell>
        <mxCell id="cGh4LljWvPgwLQH7slXu-7" value="crawler" style="sketch=0;outlineConnect=0;fontColor=#232F3E;gradientColor=none;fillColor=#8C4FFF;strokeColor=none;dashed=0;verticalLabelPosition=bottom;verticalAlign=top;align=center;html=1;fontSize=12;fontStyle=0;aspect=fixed;pointerEvents=1;shape=mxgraph.aws4.glue_crawlers;" vertex="1" parent="1">
          <mxGeometry x="330" y="233" width="50" height="50" as="geometry" />
        </mxCell>
        <mxCell id="cGh4LljWvPgwLQH7slXu-9" value="DB" style="sketch=0;points=[[0,0,0],[0.25,0,0],[0.5,0,0],[0.75,0,0],[1,0,0],[0,1,0],[0.25,1,0],[0.5,1,0],[0.75,1,0],[1,1,0],[0,0.25,0],[0,0.5,0],[0,0.75,0],[1,0.25,0],[1,0.5,0],[1,0.75,0]];outlineConnect=0;fontColor=#232F3E;fillColor=#8C4FFF;strokeColor=#ffffff;dashed=0;verticalLabelPosition=bottom;verticalAlign=top;align=center;html=1;fontSize=12;fontStyle=0;aspect=fixed;shape=mxgraph.aws4.resourceIcon;resIcon=mxgraph.aws4.athena;" vertex="1" parent="1">
          <mxGeometry x="491" y="238.5" width="38" height="38" as="geometry" />
        </mxCell>
        <mxCell id="cGh4LljWvPgwLQH7slXu-36" style="edgeStyle=orthogonalEdgeStyle;rounded=0;orthogonalLoop=1;jettySize=auto;html=1;entryX=0;entryY=0.5;entryDx=0;entryDy=0;" edge="1" parent="1" source="cGh4LljWvPgwLQH7slXu-11" target="cGh4LljWvPgwLQH7slXu-34">
          <mxGeometry relative="1" as="geometry" />
        </mxCell>
        <mxCell id="cGh4LljWvPgwLQH7slXu-11" value="" style="image;aspect=fixed;html=1;points=[];align=center;fontSize=12;image=img/lib/azure2/databases/Azure_Database_PostgreSQL_Server.svg;" vertex="1" parent="1">
          <mxGeometry x="293" y="415.61" width="30" height="40" as="geometry" />
        </mxCell>
        <mxCell id="cGh4LljWvPgwLQH7slXu-15" style="edgeStyle=orthogonalEdgeStyle;rounded=0;orthogonalLoop=1;jettySize=auto;html=1;exitX=1;exitY=0.5;exitDx=0;exitDy=0;exitPerimeter=0;" edge="1" parent="1" source="cGh4LljWvPgwLQH7slXu-13" target="cGh4LljWvPgwLQH7slXu-11">
          <mxGeometry relative="1" as="geometry" />
        </mxCell>
        <mxCell id="cGh4LljWvPgwLQH7slXu-13" value="" style="outlineConnect=0;dashed=0;verticalLabelPosition=bottom;verticalAlign=top;align=center;html=1;shape=mxgraph.aws3.lambda_function;fillColor=#F58534;gradientColor=none;" vertex="1" parent="1">
          <mxGeometry x="195" y="412.36" width="52" height="44.5" as="geometry" />
        </mxCell>
        <mxCell id="cGh4LljWvPgwLQH7slXu-17" value="embeddings" style="shape=image;verticalLabelPosition=bottom;labelBackgroundColor=default;verticalAlign=top;aspect=fixed;imageAspect=0;image=https://cloudfront-us-east-1.images.arcpublishing.com/infobae/AGX2ONRL5RGC3MQCAOOJ2YWOHM.jpg;" vertex="1" parent="1">
          <mxGeometry x="196" y="494.61" width="50" height="50" as="geometry" />
        </mxCell>
        <mxCell id="cGh4LljWvPgwLQH7slXu-21" value="&lt;b&gt;&lt;font style=&quot;font-size: 18px;&quot;&gt;Diagrama de Arquitectura AWS&lt;/font&gt;&lt;/b&gt;" style="text;html=1;align=center;verticalAlign=middle;whiteSpace=wrap;rounded=0;" vertex="1" parent="1">
          <mxGeometry x="70" y="180" width="290" height="30" as="geometry" />
        </mxCell>
        <mxCell id="cGh4LljWvPgwLQH7slXu-24" value="" style="endArrow=classic;startArrow=classic;html=1;rounded=0;entryX=0.5;entryY=1;entryDx=0;entryDy=0;entryPerimeter=0;exitX=0.5;exitY=0;exitDx=0;exitDy=0;" edge="1" parent="1" source="cGh4LljWvPgwLQH7slXu-17" target="cGh4LljWvPgwLQH7slXu-13">
          <mxGeometry width="50" height="50" relative="1" as="geometry">
            <mxPoint x="160" y="529.22" as="sourcePoint" />
            <mxPoint x="210" y="479.22" as="targetPoint" />
          </mxGeometry>
        </mxCell>
        <mxCell id="cGh4LljWvPgwLQH7slXu-25" value="Cola de errores" style="sketch=0;points=[[0,0,0],[0.25,0,0],[0.5,0,0],[0.75,0,0],[1,0,0],[0,1,0],[0.25,1,0],[0.5,1,0],[0.75,1,0],[1,1,0],[0,0.25,0],[0,0.5,0],[0,0.75,0],[1,0.25,0],[1,0.5,0],[1,0.75,0]];outlineConnect=0;fontColor=#232F3E;fillColor=#E7157B;strokeColor=#ffffff;dashed=0;verticalLabelPosition=bottom;verticalAlign=top;align=center;html=1;fontSize=12;fontStyle=0;aspect=fixed;shape=mxgraph.aws4.resourceIcon;resIcon=mxgraph.aws4.sqs;" vertex="1" parent="1">
          <mxGeometry x="173" y="316" width="44" height="44" as="geometry" />
        </mxCell>
        <mxCell id="cGh4LljWvPgwLQH7slXu-29" style="edgeStyle=orthogonalEdgeStyle;rounded=0;orthogonalLoop=1;jettySize=auto;html=1;" edge="1" parent="1" source="cGh4LljWvPgwLQH7slXu-27" target="cGh4LljWvPgwLQH7slXu-9">
          <mxGeometry relative="1" as="geometry" />
        </mxCell>
        <mxCell id="cGh4LljWvPgwLQH7slXu-27" value="Catalog" style="sketch=0;outlineConnect=0;fontColor=#232F3E;gradientColor=none;fillColor=#8C4FFF;strokeColor=none;dashed=0;verticalLabelPosition=bottom;verticalAlign=top;align=center;html=1;fontSize=12;fontStyle=0;aspect=fixed;pointerEvents=1;shape=mxgraph.aws4.datazone_business_data_catalog;" vertex="1" parent="1">
          <mxGeometry x="414" y="231.5" width="46.42" height="51" as="geometry" />
        </mxCell>
        <mxCell id="cGh4LljWvPgwLQH7slXu-31" style="edgeStyle=orthogonalEdgeStyle;rounded=0;orthogonalLoop=1;jettySize=auto;html=1;" edge="1" parent="1" source="cGh4LljWvPgwLQH7slXu-30" target="cGh4LljWvPgwLQH7slXu-13">
          <mxGeometry relative="1" as="geometry" />
        </mxCell>
        <mxCell id="cGh4LljWvPgwLQH7slXu-30" value="DB" style="sketch=0;points=[[0,0,0],[0.25,0,0],[0.5,0,0],[0.75,0,0],[1,0,0],[0,1,0],[0.25,1,0],[0.5,1,0],[0.75,1,0],[1,1,0],[0,0.25,0],[0,0.5,0],[0,0.75,0],[1,0.25,0],[1,0.5,0],[1,0.75,0]];outlineConnect=0;fontColor=#232F3E;fillColor=#8C4FFF;strokeColor=#ffffff;dashed=0;verticalLabelPosition=bottom;verticalAlign=top;align=center;html=1;fontSize=12;fontStyle=0;aspect=fixed;shape=mxgraph.aws4.resourceIcon;resIcon=mxgraph.aws4.athena;" vertex="1" parent="1">
          <mxGeometry x="100" y="415.61" width="38" height="38" as="geometry" />
        </mxCell>
        <mxCell id="cGh4LljWvPgwLQH7slXu-34" value="Analitica" style="swimlane;whiteSpace=wrap;html=1;" vertex="1" parent="1">
          <mxGeometry x="370" y="330" width="150" height="260" as="geometry" />
        </mxCell>
        <mxCell id="cGh4LljWvPgwLQH7slXu-19" value="" style="shape=image;verticalLabelPosition=bottom;labelBackgroundColor=default;verticalAlign=top;aspect=fixed;imageAspect=0;image=https://images.squarespace-cdn.com/content/v1/5b7a0a46f407b425438439ca/1535331321851-10QWGCIEEVYU0R5SVWMD/preview.png;" vertex="1" parent="cGh4LljWvPgwLQH7slXu-34">
          <mxGeometry x="15" y="30" width="124" height="82.56" as="geometry" />
        </mxCell>
        <mxCell id="cGh4LljWvPgwLQH7slXu-32" value="" style="points=[];aspect=fixed;html=1;align=center;shadow=0;dashed=0;fillColor=#FF6A00;strokeColor=none;shape=mxgraph.alibaba_cloud.imagesearch;" vertex="1" parent="cGh4LljWvPgwLQH7slXu-34">
          <mxGeometry x="52" y="120" width="50" height="50" as="geometry" />
        </mxCell>
        <mxCell id="cGh4LljWvPgwLQH7slXu-33" value="" style="sketch=0;points=[[0,0,0],[0.25,0,0],[0.5,0,0],[0.75,0,0],[1,0,0],[0,1,0],[0.25,1,0],[0.5,1,0],[0.75,1,0],[1,1,0],[0,0.25,0],[0,0.5,0],[0,0.75,0],[1,0.25,0],[1,0.5,0],[1,0.75,0]];outlineConnect=0;fontColor=#232F3E;fillColor=#01A88D;strokeColor=#ffffff;dashed=0;verticalLabelPosition=bottom;verticalAlign=top;align=center;html=1;fontSize=12;fontStyle=0;aspect=fixed;shape=mxgraph.aws4.resourceIcon;resIcon=mxgraph.aws4.machine_learning;" vertex="1" parent="cGh4LljWvPgwLQH7slXu-34">
          <mxGeometry x="44" y="180" width="78" height="78" as="geometry" />
        </mxCell>
      </root>
    </mxGraphModel>
  </diagram>
</mxfile>
